<svg width="360" height="23" viewBox="0 0 360 23" fill="none" xmlns="http://www.w3.org/2000/svg">
<path fill-rule="evenodd" clip-rule="evenodd" d="M277.269 18.3601C269.147 16.0399 261.024 13.7197 244.779 13.7197C228.536 13.7197 220.408 16.045 212.279 18.3702C204.751 20.5236 197.224 22.6769 183.252 22.9831V22.9831C169.28 22.6768 161.753 20.5235 154.225 18.3701C146.096 16.0449 137.967 13.7196 121.725 13.7196C105.479 13.7196 97.357 16.0399 89.235 18.3601C81.1136 20.68 72.9925 22.9999 56.751 22.9999C40.5083 22.9999 32.3872 20.6797 24.2665 18.3595C16.1464 16.0395 8.02664 13.7196 -8.21222 13.7196C-24.4239 13.7196 -32.5443 16.0431 -40.6607 18.3654C-41.1067 18.493 -41.5527 18.6206 -42 18.7479V-5.53131e-05H183.252L408.504 0V18.7479C408.056 18.6207 407.61 18.4931 407.164 18.3655C399.048 16.0431 390.928 13.7197 374.716 13.7197C358.477 13.7197 350.357 16.0396 342.237 18.3596C334.117 20.6797 325.995 23 309.753 23C293.511 23 285.39 20.6801 277.269 18.3601Z" fill="#008080"/>
</svg>
