<svg width="48" height="48" viewBox="0 0 48 48" fill="none" xmlns="http://www.w3.org/2000/svg">
<path d="M24.0005 0C10.7665 0 0 10.7665 0 24.0005C0 37.2335 10.7665 48 24.0005 48C37.2335 48 48 37.2335 48 24.0005C48 10.7665 37.2335 0 24.0005 0ZM27.3353 17.4756H31.0339C31.9309 17.4756 32.6579 18.2026 32.6579 19.0996C32.6579 19.9967 31.9309 20.7237 31.0339 20.7237H27.3369C26.6196 23.5117 24.1072 25.5873 21.1064 25.623C22.6499 27.1442 24.8586 29.3773 28.0786 32.6568C28.7071 33.2967 28.6979 34.3248 28.0575 34.9533C27.7413 35.2635 27.3304 35.4183 26.9195 35.4183C26.4994 35.4183 26.0788 35.2559 25.7605 34.9322C21.6814 30.7783 17.0105 26.1108 16.1563 25.4075C15.6696 25.1266 15.3421 24.602 15.3421 23.9995C15.3421 23.1024 16.0691 22.3754 16.9661 22.3754H21.0274C22.2422 22.3754 23.3022 21.709 23.8674 20.7237H17.0105C16.1135 20.7237 15.3865 19.9967 15.3865 19.0996C15.3865 18.2026 16.1135 17.4756 17.0105 17.4756H23.8636C23.2979 16.4935 22.2395 15.8293 21.0274 15.8293H17.0105H16.9661C16.0691 15.8293 15.3421 15.1022 15.3421 14.2052C15.3421 13.3082 16.0691 12.5811 16.9661 12.5811H17.0105H21.0274H31.0339C31.9309 12.5811 32.6579 13.3082 32.6579 14.2052C32.6579 15.1022 31.9309 15.8293 31.0339 15.8293H26.6586C26.9558 16.3387 27.1843 16.8909 27.3353 17.4756Z" fill="#FDCE10"/>
</svg>
