<svg width="199" height="57" viewBox="0 0 199 57" fill="none" xmlns="http://www.w3.org/2000/svg">
<path d="M81.6236 29.596C81.6236 30.316 81.5756 30.964 81.4796 31.54H66.8996C67.0196 32.98 67.5236 34.108 68.4116 34.924C69.2996 35.74 70.3916 36.148 71.6876 36.148C73.5596 36.148 74.8916 35.344 75.6836 33.736H81.1196C80.5436 35.656 79.4396 37.24 77.8076 38.488C76.1756 39.712 74.1716 40.324 71.7956 40.324C69.8756 40.324 68.1476 39.904 66.6116 39.064C65.0996 38.2 63.9116 36.988 63.0476 35.428C62.2076 33.868 61.7876 32.068 61.7876 30.028C61.7876 27.964 62.2076 26.152 63.0476 24.592C63.8876 23.032 65.0636 21.832 66.5756 20.992C68.0876 20.152 69.8276 19.732 71.7956 19.732C73.6916 19.732 75.3836 20.14 76.8716 20.956C78.3836 21.772 79.5476 22.936 80.3636 24.448C81.2036 25.936 81.6236 27.652 81.6236 29.596ZM76.4036 28.156C76.3796 26.86 75.9116 25.828 74.9996 25.06C74.0876 24.268 72.9716 23.872 71.6516 23.872C70.4036 23.872 69.3476 24.256 68.4836 25.024C67.6436 25.768 67.1276 26.812 66.9356 28.156H76.4036ZM84.0064 30.028C84.0064 27.964 84.4264 26.164 85.2664 24.628C86.1064 23.068 87.2704 21.868 88.7584 21.028C90.2464 20.164 91.9504 19.732 93.8704 19.732C96.3424 19.732 98.3824 20.356 99.9904 21.604C101.622 22.828 102.714 24.556 103.266 26.788H97.8304C97.5424 25.924 97.0504 25.252 96.3544 24.772C95.6824 24.268 94.8424 24.016 93.8344 24.016C92.3944 24.016 91.2544 24.544 90.4144 25.6C89.5744 26.632 89.1544 28.108 89.1544 30.028C89.1544 31.924 89.5744 33.4 90.4144 34.456C91.2544 35.488 92.3944 36.004 93.8344 36.004C95.8744 36.004 97.2064 35.092 97.8304 33.268H103.266C102.714 35.428 101.622 37.144 99.9904 38.416C98.3584 39.688 96.3184 40.324 93.8704 40.324C91.9504 40.324 90.2464 39.904 88.7584 39.064C87.2704 38.2 86.1064 37 85.2664 35.464C84.4264 33.904 84.0064 32.092 84.0064 30.028ZM115.815 40.324C113.895 40.324 112.167 39.904 110.631 39.064C109.095 38.2 107.883 36.988 106.995 35.428C106.131 33.868 105.699 32.068 105.699 30.028C105.699 27.988 106.143 26.188 107.031 24.628C107.943 23.068 109.179 21.868 110.739 21.028C112.299 20.164 114.039 19.732 115.959 19.732C117.879 19.732 119.619 20.164 121.179 21.028C122.739 21.868 123.963 23.068 124.851 24.628C125.763 26.188 126.219 27.988 126.219 30.028C126.219 32.068 125.751 33.868 124.815 35.428C123.903 36.988 122.655 38.2 121.071 39.064C119.511 39.904 117.759 40.324 115.815 40.324ZM115.815 35.932C116.727 35.932 117.579 35.716 118.371 35.284C119.187 34.828 119.835 34.156 120.315 33.268C120.795 32.38 121.035 31.3 121.035 30.028C121.035 28.132 120.531 26.68 119.523 25.672C118.539 24.64 117.327 24.124 115.887 24.124C114.447 24.124 113.235 24.64 112.251 25.672C111.291 26.68 110.811 28.132 110.811 30.028C110.811 31.924 111.279 33.388 112.215 34.42C113.175 35.428 114.375 35.932 115.815 35.932ZM134.956 22.936C135.604 22.024 136.492 21.268 137.62 20.668C138.772 20.044 140.08 19.732 141.544 19.732C143.248 19.732 144.784 20.152 146.152 20.992C147.544 21.832 148.636 23.032 149.428 24.592C150.244 26.128 150.652 27.916 150.652 29.956C150.652 31.996 150.244 33.808 149.428 35.392C148.636 36.952 147.544 38.164 146.152 39.028C144.784 39.892 143.248 40.324 141.544 40.324C140.08 40.324 138.784 40.024 137.656 39.424C136.552 38.824 135.652 38.068 134.956 37.156V49.504H129.916V20.056H134.956V22.936ZM145.504 29.956C145.504 28.756 145.252 27.724 144.748 26.86C144.268 25.972 143.62 25.3 142.804 24.844C142.012 24.388 141.148 24.16 140.212 24.16C139.3 24.16 138.436 24.4 137.62 24.88C136.828 25.336 136.18 26.008 135.676 26.896C135.196 27.784 134.956 28.828 134.956 30.028C134.956 31.228 135.196 32.272 135.676 33.16C136.18 34.048 136.828 34.732 137.62 35.212C138.436 35.668 139.3 35.896 140.212 35.896C141.148 35.896 142.012 35.656 142.804 35.176C143.62 34.696 144.268 34.012 144.748 33.124C145.252 32.236 145.504 31.18 145.504 29.956ZM153.018 29.956C153.018 27.94 153.414 26.152 154.206 24.592C155.022 23.032 156.114 21.832 157.482 20.992C158.874 20.152 160.422 19.732 162.126 19.732C163.614 19.732 164.91 20.032 166.014 20.632C167.142 21.232 168.042 21.988 168.714 22.9V20.056H173.79V40H168.714V37.084C168.066 38.02 167.166 38.8 166.014 39.424C164.886 40.024 163.578 40.324 162.09 40.324C160.41 40.324 158.874 39.892 157.482 39.028C156.114 38.164 155.022 36.952 154.206 35.392C153.414 33.808 153.018 31.996 153.018 29.956ZM168.714 30.028C168.714 28.804 168.474 27.76 167.994 26.896C167.514 26.008 166.866 25.336 166.05 24.88C165.234 24.4 164.358 24.16 163.422 24.16C162.486 24.16 161.622 24.388 160.83 24.844C160.038 25.3 159.39 25.972 158.886 26.86C158.406 27.724 158.166 28.756 158.166 29.956C158.166 31.156 158.406 32.212 158.886 33.124C159.39 34.012 160.038 34.696 160.83 35.176C161.646 35.656 162.51 35.896 163.422 35.896C164.358 35.896 165.234 35.668 166.05 35.212C166.866 34.732 167.514 34.06 167.994 33.196C168.474 32.308 168.714 31.252 168.714 30.028ZM197.793 20.056L185.445 49.432H180.081L184.401 39.496L176.409 20.056H182.061L187.209 33.988L192.429 20.056H197.793Z" fill="#008080"/>
<path d="M11 14.5L3.125 23.5L2 37L7.625 48.25L17.75 55H31.25L42.5 47.125L47 35.875L44.75 22.375L35.75 13.375L23.375 10L11 14.5Z" fill="#008080"/>
<path d="M11 14.5L3.125 23.5L2 37L7.625 48.25L17.75 55H31.25L42.5 47.125L47 35.875L44.75 22.375L35.75 13.375L23.375 10L11 14.5Z" stroke="#FE9C8F" stroke-width="3.64865"/>
<path d="M13.4252 34.1986C14.5489 34.4791 15.9828 34.8142 17.3575 35.5686C18.6417 36.2746 19.5722 37.2908 20.4917 38.3225C21.0621 38.9631 21.4035 39.8359 21.737 40.6495C22.0908 41.5145 22.3495 42.4247 22.5802 43.3317C22.7329 43.9287 22.8311 44.5864 22.1516 44.9776C21.9536 45.0914 21.6778 45.1506 21.4549 45.1178C20.9889 45.0524 20.5213 44.9448 20.0756 44.7906C18.93 44.3916 17.7596 44.0331 16.6655 43.5188C14.8809 42.6803 13.7229 41.1373 12.8688 39.4525C12.2797 38.2883 11.9524 36.9526 11.717 35.6558C11.4801 34.3373 11.7467 34.1518 13.4252 34.1986Z" fill="white"/>
<path d="M37.013 35.5795C36.6794 36.5146 36.3755 37.4591 36.0046 38.3786C35.7054 39.1236 35.3921 39.878 34.9713 40.5591C34.0502 42.049 32.7098 43.0668 31.1263 43.8024C30.0353 44.3089 28.9739 44.8513 27.7209 44.842C27.2985 44.8388 26.7935 45.1521 26.4678 45.0056C25.7883 44.7001 25.8475 44.0097 26.0142 43.3785C26.2917 42.3249 26.4647 41.2246 26.9011 40.2395C27.2969 39.3449 27.9219 38.5283 28.5594 37.7724C29.3293 36.8575 30.174 35.9925 31.318 35.5124C31.9134 35.2631 32.4838 34.9389 33.0979 34.7519C33.8787 34.5134 34.6845 34.2905 35.4918 34.2204C36.8026 34.1066 36.868 34.2188 37.013 35.5795Z" fill="white"/>
<path d="M24.2712 19.6429C25.3529 19.7146 26.4205 19.6476 27.4148 19.8845C28.6025 20.1682 29.7262 20.7183 30.8826 21.1407C32.41 21.6987 33.6288 22.7351 34.7775 23.8136C35.5489 24.5384 36.1833 25.4517 36.7147 26.3744C37.2524 27.3079 37.1605 27.3142 36.0212 27.3827C35.2559 27.4295 34.5016 27.6867 33.7379 27.7147C33.4044 27.7272 33.0069 27.4575 32.7264 27.216C32.0095 26.5957 31.4016 25.8335 30.6364 25.288C29.8353 24.716 28.9033 24.328 28.0273 23.8604C27.9821 23.837 27.9323 23.8152 27.8824 23.8058C26.1898 23.5222 24.4863 22.9814 22.7797 23.3726C21.324 23.7061 19.8278 24.0864 18.6183 25.073C17.7097 25.8148 16.7621 26.5271 15.9594 27.3734C15.2939 28.0763 14.6035 27.5963 13.938 27.6243C13.3629 27.6492 12.78 27.4373 12.1955 27.3531C11.6968 27.2814 11.5425 27.138 11.9088 26.6705C12.5556 25.846 13.0543 24.8797 13.7977 24.1628C14.736 23.2572 15.7896 22.4296 16.9148 21.775C18.1742 21.0425 19.527 20.402 20.9188 19.9812C21.9848 19.6601 23.1756 19.7396 24.2712 19.6429Z" fill="white"/>
</svg>
