<svg width="264" height="73" viewBox="0 0 264 73" fill="none" xmlns="http://www.w3.org/2000/svg">
<path d="M81.1236 22.36V49H76.0836V22.36H81.1236ZM104.643 38.596C104.643 39.316 104.595 39.964 104.499 40.54H89.9191C90.0391 41.98 90.5431 43.108 91.4311 43.924C92.3191 44.74 93.4111 45.148 94.7071 45.148C96.5791 45.148 97.9111 44.344 98.7031 42.736H104.139C103.563 44.656 102.459 46.24 100.827 47.488C99.1951 48.712 97.1911 49.324 94.8151 49.324C92.8951 49.324 91.1671 48.904 89.6311 48.064C88.1191 47.2 86.9311 45.988 86.0671 44.428C85.2271 42.868 84.8071 41.068 84.8071 39.028C84.8071 36.964 85.2271 35.152 86.0671 33.592C86.9071 32.032 88.0831 30.832 89.5951 29.992C91.1071 29.152 92.8471 28.732 94.8151 28.732C96.7111 28.732 98.4031 29.14 99.8911 29.956C101.403 30.772 102.567 31.936 103.383 33.448C104.223 34.936 104.643 36.652 104.643 38.596ZM99.4231 37.156C99.3991 35.86 98.9311 34.828 98.0191 34.06C97.1071 33.268 95.9911 32.872 94.6711 32.872C93.4231 32.872 92.3671 33.256 91.5031 34.024C90.6631 34.768 90.1471 35.812 89.9551 37.156H99.4231ZM107.026 38.956C107.026 36.94 107.422 35.152 108.214 33.592C109.03 32.032 110.122 30.832 111.49 29.992C112.882 29.152 114.43 28.732 116.134 28.732C117.622 28.732 118.918 29.032 120.022 29.632C121.15 30.232 122.05 30.988 122.722 31.9V29.056H127.798V49H122.722V46.084C122.074 47.02 121.174 47.8 120.022 48.424C118.894 49.024 117.586 49.324 116.098 49.324C114.418 49.324 112.882 48.892 111.49 48.028C110.122 47.164 109.03 45.952 108.214 44.392C107.422 42.808 107.026 40.996 107.026 38.956ZM122.722 39.028C122.722 37.804 122.482 36.76 122.002 35.896C121.522 35.008 120.874 34.336 120.058 33.88C119.242 33.4 118.366 33.16 117.43 33.16C116.494 33.16 115.63 33.388 114.838 33.844C114.046 34.3 113.398 34.972 112.894 35.86C112.414 36.724 112.174 37.756 112.174 38.956C112.174 40.156 112.414 41.212 112.894 42.124C113.398 43.012 114.046 43.696 114.838 44.176C115.654 44.656 116.518 44.896 117.43 44.896C118.366 44.896 119.242 44.668 120.058 44.212C120.874 43.732 121.522 43.06 122.002 42.196C122.482 41.308 122.722 40.252 122.722 39.028ZM141.864 33.196H138.372V49H133.26V33.196H130.992V29.056H133.26V28.048C133.26 25.6 133.956 23.8 135.348 22.648C136.74 21.496 138.84 20.956 141.648 21.028V25.276C140.424 25.252 139.572 25.456 139.092 25.888C138.612 26.32 138.372 27.1 138.372 28.228V29.056H141.864V33.196ZM164.21 29.056L151.862 58.432H146.498L150.818 48.496L142.826 29.056H148.478L153.626 42.988L158.846 29.056H164.21Z" fill="#008080"/>
<path d="M171.967 31.936C172.615 31.024 173.503 30.268 174.631 29.668C175.783 29.044 177.091 28.732 178.555 28.732C180.259 28.732 181.795 29.152 183.163 29.992C184.555 30.832 185.647 32.032 186.439 33.592C187.255 35.128 187.663 36.916 187.663 38.956C187.663 40.996 187.255 42.808 186.439 44.392C185.647 45.952 184.555 47.164 183.163 48.028C181.795 48.892 180.259 49.324 178.555 49.324C177.091 49.324 175.795 49.024 174.667 48.424C173.563 47.824 172.663 47.068 171.967 46.156V58.504H166.927V29.056H171.967V31.936ZM182.515 38.956C182.515 37.756 182.263 36.724 181.759 35.86C181.279 34.972 180.631 34.3 179.815 33.844C179.023 33.388 178.159 33.16 177.223 33.16C176.311 33.16 175.447 33.4 174.631 33.88C173.839 34.336 173.191 35.008 172.687 35.896C172.207 36.784 171.967 37.828 171.967 39.028C171.967 40.228 172.207 41.272 172.687 42.16C173.191 43.048 173.839 43.732 174.631 44.212C175.447 44.668 176.311 44.896 177.223 44.896C178.159 44.896 179.023 44.656 179.815 44.176C180.631 43.696 181.279 43.012 181.759 42.124C182.263 41.236 182.515 40.18 182.515 38.956ZM196.366 32.152C197.014 31.096 197.854 30.268 198.886 29.668C199.942 29.068 201.142 28.768 202.486 28.768V34.06H201.154C199.57 34.06 198.37 34.432 197.554 35.176C196.762 35.92 196.366 37.216 196.366 39.064V49H191.326V29.056H196.366V32.152ZM214.736 49.324C212.816 49.324 211.088 48.904 209.552 48.064C208.016 47.2 206.804 45.988 205.916 44.428C205.052 42.868 204.62 41.068 204.62 39.028C204.62 36.988 205.064 35.188 205.952 33.628C206.864 32.068 208.1 30.868 209.66 30.028C211.22 29.164 212.96 28.732 214.88 28.732C216.8 28.732 218.54 29.164 220.1 30.028C221.66 30.868 222.884 32.068 223.772 33.628C224.684 35.188 225.14 36.988 225.14 39.028C225.14 41.068 224.672 42.868 223.736 44.428C222.824 45.988 221.576 47.2 219.992 48.064C218.432 48.904 216.68 49.324 214.736 49.324ZM214.736 44.932C215.648 44.932 216.5 44.716 217.292 44.284C218.108 43.828 218.756 43.156 219.236 42.268C219.716 41.38 219.956 40.3 219.956 39.028C219.956 37.132 219.452 35.68 218.444 34.672C217.46 33.64 216.248 33.124 214.808 33.124C213.368 33.124 212.156 33.64 211.172 34.672C210.212 35.68 209.732 37.132 209.732 39.028C209.732 40.924 210.2 42.388 211.136 43.42C212.096 44.428 213.296 44.932 214.736 44.932ZM237.982 33.196H234.49V49H229.378V33.196H227.11V29.056H229.378V28.048C229.378 25.6 230.074 23.8 231.466 22.648C232.858 21.496 234.958 20.956 237.766 21.028V25.276C236.542 25.252 235.69 25.456 235.21 25.888C234.73 26.32 234.49 27.1 234.49 28.228V29.056H237.982V33.196ZM243.804 26.68C242.916 26.68 242.172 26.404 241.572 25.852C240.996 25.276 240.708 24.568 240.708 23.728C240.708 22.888 240.996 22.192 241.572 21.64C242.172 21.064 242.916 20.776 243.804 20.776C244.692 20.776 245.424 21.064 246 21.64C246.6 22.192 246.9 22.888 246.9 23.728C246.9 24.568 246.6 25.276 246 25.852C245.424 26.404 244.692 26.68 243.804 26.68ZM246.288 29.056V49H241.248V29.056H246.288ZM257.135 33.196V42.844C257.135 43.516 257.291 44.008 257.603 44.32C257.939 44.608 258.491 44.752 259.259 44.752H261.599V49H258.431C254.183 49 252.059 46.936 252.059 42.808V33.196H249.683V29.056H252.059V24.124H257.135V29.056H261.599V33.196H257.135Z" fill="#FDCE10"/>
<path d="M62.22 33.2997L51.2165 14.2438C50.2436 12.5579 48.4467 11.5205 46.5003 11.5209L24.4983 11.521C22.5519 11.5214 20.7544 12.5598 19.7824 14.2434L8.78129 33.2979C7.80773 34.9842 7.80869 37.0574 8.78157 38.7432L19.7824 57.7976C20.7553 59.4834 22.5522 60.5209 24.4986 60.5205L46.5006 60.5203C48.447 60.52 50.2445 59.4815 51.2165 57.7979L62.2176 38.7434C63.1923 37.0614 63.1902 34.984 62.22 33.2997Z" fill="#008080"/>
<path d="M36.2896 53.0843C44.172 48.811 48.349 43.8352 48.7003 38.2964C49.3596 28.0704 36.8767 19.6683 35.972 19.0716C35.9576 19.062 35.948 19.0524 35.9383 19.0475C35.9239 19.0427 35.9191 19.0331 35.9046 19.0331C35.871 19.009 35.8421 18.9946 35.818 18.9802C35.7747 18.9561 35.7218 18.9417 35.6833 18.9272C35.6304 18.9128 35.587 18.8935 35.5485 18.8887C35.51 18.8791 35.4812 18.8743 35.4331 18.8743C35.3272 18.8551 35.2069 18.8551 35.0914 18.8743C35.0529 18.8743 35.024 18.8791 34.9759 18.8887C34.9374 18.8935 34.8893 18.9128 34.8508 18.9272C34.8075 18.932 34.7738 18.9513 34.7353 18.9705C34.6823 18.9946 34.6342 19.0187 34.5957 19.0475C34.5524 19.0668 34.5187 19.0957 34.4947 19.1197C33.2483 19.9522 21.9156 27.7721 22.3294 37.6323C22.5652 43.2433 26.5738 48.3876 34.2589 52.9014L34.2637 52.9062V51.6984L34.2589 50.9525L34.2733 45.6446L26.6171 38.8353C26.261 38.5177 26.3139 38.0413 26.7518 37.767C27.1753 37.4975 27.8153 37.5408 28.1811 37.8681L34.2781 43.3059V36.819L28.3639 31.5496C28.003 31.2224 28.0608 30.746 28.4842 30.4813C28.9125 30.207 29.5573 30.2552 29.9135 30.5728L34.2733 34.461L34.2781 27.8635C34.2781 27.4496 34.7353 27.108 35.2887 27.108C35.8421 27.108 36.2992 27.4496 36.2992 27.8635L36.2944 34.6968L40.9142 30.5824C41.2799 30.2552 41.9103 30.2167 42.3434 30.491C42.7669 30.7556 42.8294 31.2272 42.4637 31.5496L36.535 36.8238L36.2944 37.0356V37.2521V43.5224L42.6465 37.8633C43.0075 37.5457 43.6427 37.5072 44.0661 37.7718C44.5041 38.0365 44.5522 38.5177 44.2009 38.8353L36.5302 45.659L36.2848 45.8708V46.0969V51.2027V51.5973C36.2896 51.6117 36.2896 51.631 36.2896 51.6502V52.2566V53.0121C36.2848 53.0121 36.2848 53.0169 36.2848 53.0169" fill="white"/>
<path d="M34.2734 45.6013V45.6446L34.2782 45.6591C34.2734 45.6446 34.2734 45.6206 34.2734 45.6013Z" fill="white"/>
<path d="M34.2734 36.7854V36.8191L34.2782 36.8239C34.2734 36.8095 34.2734 36.7998 34.2734 36.7854Z" fill="white"/>
</svg>
