<svg width="131" height="36" viewBox="0 0 131 36" fill="none" xmlns="http://www.w3.org/2000/svg">
<path d="M40.0149 11.2386V24.47H37.5117V11.2386H40.0149ZM51.6964 19.3026C51.6964 19.6602 51.6726 19.982 51.6249 20.2681H44.3834C44.443 20.9833 44.6933 21.5436 45.1344 21.9489C45.5754 22.3541 46.1178 22.5568 46.7615 22.5568C47.6913 22.5568 48.3528 22.1575 48.7462 21.3588H51.4461C51.16 22.3124 50.6117 23.0992 49.8011 23.719C48.9905 24.3269 47.9952 24.6309 46.8151 24.6309C45.8615 24.6309 45.0033 24.4223 44.2404 24.0051C43.4894 23.576 42.8994 22.974 42.4702 22.1992C42.053 21.4244 41.8444 20.5304 41.8444 19.5172C41.8444 18.492 42.053 17.592 42.4702 16.8172C42.8874 16.0424 43.4715 15.4464 44.2225 15.0292C44.9735 14.612 45.8377 14.4034 46.8151 14.4034C47.7568 14.4034 48.5972 14.6061 49.3362 15.0113C50.0872 15.4166 50.6653 15.9947 51.0706 16.7457C51.4878 17.4848 51.6964 18.3371 51.6964 19.3026ZM49.1038 18.5874C49.0919 17.9437 48.8594 17.4311 48.4065 17.0497C47.9535 16.6563 47.3992 16.4596 46.7436 16.4596C46.1238 16.4596 45.5993 16.6504 45.1701 17.0318C44.7529 17.4013 44.4967 17.9199 44.4013 18.5874H49.1038ZM52.8799 19.4814C52.8799 18.4801 53.0766 17.592 53.4699 16.8172C53.8752 16.0424 54.4176 15.4464 55.097 15.0292C55.7884 14.612 56.5572 14.4034 57.4036 14.4034C58.1426 14.4034 58.7863 14.5524 59.3346 14.8504C59.8949 15.1484 60.3419 15.5239 60.6756 15.9769V14.5643H63.1968V24.47H60.6756V23.0217C60.3538 23.4866 59.9068 23.874 59.3346 24.1839C58.7744 24.4819 58.1247 24.6309 57.3857 24.6309C56.5513 24.6309 55.7884 24.4163 55.097 23.9872C54.4176 23.5581 53.8752 22.9561 53.4699 22.1813C53.0766 21.3946 52.8799 20.4946 52.8799 19.4814ZM60.6756 19.5172C60.6756 18.9092 60.5564 18.3907 60.318 17.9616C60.0796 17.5205 59.7578 17.1868 59.3525 16.9603C58.9472 16.7219 58.5121 16.6027 58.0473 16.6027C57.5824 16.6027 57.1532 16.7159 56.7599 16.9424C56.3665 17.1689 56.0447 17.5026 55.7943 17.9437C55.5559 18.3728 55.4367 18.8854 55.4367 19.4814C55.4367 20.0774 55.5559 20.6019 55.7943 21.0548C56.0447 21.4959 56.3665 21.8356 56.7599 22.074C57.1652 22.3124 57.5943 22.4316 58.0473 22.4316C58.5121 22.4316 58.9472 22.3184 59.3525 22.0919C59.7578 21.8535 60.0796 21.5197 60.318 21.0906C60.5564 20.6496 60.6756 20.1251 60.6756 19.5172ZM70.1832 16.6206H68.4488V24.47H65.9098V16.6206H64.7833V14.5643H65.9098V14.0637C65.9098 12.8478 66.2555 11.9538 66.9468 11.3817C67.6382 10.8095 68.6812 10.5413 70.0759 10.577V12.6869C69.468 12.675 69.0448 12.7763 68.8064 12.9909C68.568 13.2054 68.4488 13.5928 68.4488 14.1531V14.5643H70.1832V16.6206ZM81.2819 14.5643L75.149 29.1546H72.4848L74.6304 24.2196L70.661 14.5643H73.4682L76.0251 21.484L78.6177 14.5643H81.2819Z" fill="white"/>
<path d="M85.1345 15.9947C85.4564 15.5418 85.8974 15.1663 86.4576 14.8683C87.0298 14.5584 87.6795 14.4034 88.4066 14.4034C89.2529 14.4034 90.0158 14.612 90.6953 15.0292C91.3866 15.4464 91.929 16.0424 92.3224 16.8172C92.7276 17.5801 92.9303 18.4682 92.9303 19.4814C92.9303 20.4946 92.7276 21.3946 92.3224 22.1813C91.929 22.9561 91.3866 23.5581 90.6953 23.9872C90.0158 24.4163 89.2529 24.6309 88.4066 24.6309C87.6795 24.6309 87.0358 24.4819 86.4755 24.1839C85.9272 23.8859 85.4802 23.5104 85.1345 23.0574V29.1903H82.6313V14.5643H85.1345V15.9947ZM90.3734 19.4814C90.3734 18.8854 90.2483 18.3728 89.9979 17.9437C89.7595 17.5026 89.4377 17.1689 89.0324 16.9424C88.639 16.7159 88.2099 16.6027 87.745 16.6027C87.2921 16.6027 86.8629 16.7219 86.4576 16.9603C86.0643 17.1868 85.7424 17.5205 85.4921 17.9616C85.2537 18.4026 85.1345 18.9211 85.1345 19.5172C85.1345 20.1132 85.2537 20.6317 85.4921 21.0727C85.7424 21.5138 86.0643 21.8535 86.4576 22.0919C86.8629 22.3184 87.2921 22.4316 87.745 22.4316C88.2099 22.4316 88.639 22.3124 89.0324 22.074C89.4377 21.8356 89.7595 21.4959 89.9979 21.0548C90.2483 20.6138 90.3734 20.0893 90.3734 19.4814ZM97.2525 16.102C97.5744 15.5775 97.9916 15.1663 98.5042 14.8683C99.0286 14.5703 99.6247 14.4213 100.292 14.4213V17.0497H99.6306C98.8439 17.0497 98.2479 17.2344 97.8426 17.604C97.4492 17.9735 97.2525 18.6172 97.2525 19.535V24.47H94.7493V14.5643H97.2525V16.102ZM106.377 24.6309C105.423 24.6309 104.565 24.4223 103.802 24.0051C103.039 23.576 102.437 22.974 101.996 22.1992C101.567 21.4244 101.352 20.5304 101.352 19.5172C101.352 18.5039 101.573 17.6099 102.014 16.8351C102.467 16.0603 103.081 15.4643 103.856 15.0471C104.63 14.618 105.495 14.4034 106.448 14.4034C107.402 14.4034 108.266 14.618 109.041 15.0471C109.816 15.4643 110.424 16.0603 110.865 16.8351C111.318 17.6099 111.544 18.5039 111.544 19.5172C111.544 20.5304 111.312 21.4244 110.847 22.1992C110.394 22.974 109.774 23.576 108.987 24.0051C108.212 24.4223 107.342 24.6309 106.377 24.6309ZM106.377 22.4495C106.83 22.4495 107.253 22.3422 107.646 22.1277C108.052 21.9012 108.373 21.5674 108.612 21.1264C108.85 20.6853 108.969 20.1489 108.969 19.5172C108.969 18.5755 108.719 17.8543 108.218 17.3536C107.73 16.8411 107.128 16.5848 106.413 16.5848C105.697 16.5848 105.095 16.8411 104.607 17.3536C104.13 17.8543 103.891 18.5755 103.891 19.5172C103.891 20.4588 104.124 21.186 104.589 21.6985C105.066 22.1992 105.662 22.4495 106.377 22.4495ZM117.922 16.6206H116.188V24.47H113.649V16.6206H112.522V14.5643H113.649V14.0637C113.649 12.8478 113.994 11.9538 114.686 11.3817C115.377 10.8095 116.42 10.5413 117.815 10.577V12.6869C117.207 12.675 116.784 12.7763 116.545 12.9909C116.307 13.2054 116.188 13.5928 116.188 14.1531V14.5643H117.922V16.6206ZM120.814 13.3842C120.373 13.3842 120.003 13.2472 119.705 12.973C119.419 12.6869 119.276 12.3353 119.276 11.9181C119.276 11.5009 119.419 11.1552 119.705 10.881C120.003 10.5949 120.373 10.4519 120.814 10.4519C121.255 10.4519 121.618 10.5949 121.904 10.881C122.202 11.1552 122.351 11.5009 122.351 11.9181C122.351 12.3353 122.202 12.6869 121.904 12.973C121.618 13.2472 121.255 13.3842 120.814 13.3842ZM122.047 14.5643V24.47H119.544V14.5643H122.047ZM127.435 16.6206V21.4125C127.435 21.7462 127.513 21.9906 127.667 22.1455C127.834 22.2886 128.109 22.3601 128.49 22.3601H129.652V24.47H128.079C125.969 24.47 124.914 23.4448 124.914 21.3946V16.6206H123.734V14.5643H124.914V12.1147H127.435V14.5643H129.652V16.6206H127.435Z" fill="#FDCE10"/>
<path d="M30.6259 16.539L25.1608 7.0745C24.6776 6.23718 23.7851 5.72192 22.8184 5.72211L11.8906 5.72218C10.9238 5.72238 10.0311 6.23813 9.54832 7.07433L4.08436 16.5382C3.60083 17.3757 3.6013 18.4054 4.0845 19.2427L9.54833 28.7065C10.0315 29.5438 10.924 30.0591 11.8907 30.0589L22.8185 30.0588C23.7853 30.0586 24.678 29.5428 25.1608 28.7066L30.6247 19.2428C31.1088 18.4074 31.1078 17.3756 30.6259 16.539Z" fill="white"/>
<path d="M17.7473 26.3655C21.6623 24.2431 23.7369 21.7718 23.9114 19.0208C24.2388 13.9418 18.0389 9.76872 17.5896 9.47235C17.5824 9.46757 17.5776 9.46279 17.5728 9.4604C17.5657 9.45801 17.5633 9.45323 17.5561 9.45323C17.5394 9.44128 17.525 9.43411 17.5131 9.42694C17.4916 9.41499 17.4653 9.40782 17.4462 9.40065C17.4199 9.39348 17.3984 9.38392 17.3792 9.38153C17.3601 9.37675 17.3458 9.37436 17.3219 9.37436C17.2693 9.3648 17.2095 9.3648 17.1522 9.37436C17.1331 9.37436 17.1187 9.37675 17.0948 9.38153C17.0757 9.38392 17.0518 9.39348 17.0327 9.40065C17.0112 9.40304 16.9944 9.4126 16.9753 9.42216C16.949 9.43411 16.9251 9.44606 16.906 9.4604C16.8845 9.46996 16.8678 9.4843 16.8558 9.49625C16.2368 9.90974 10.6081 13.7936 10.8137 18.6909C10.9308 21.4778 12.9217 24.0328 16.7387 26.2747L16.7411 26.2771V25.6772L16.7387 25.3067L16.7459 22.6704L12.9432 19.2885C12.7664 19.1307 12.7927 18.8941 13.0102 18.7579C13.2205 18.624 13.5384 18.6455 13.72 18.808L16.7483 21.5088V18.287L13.8108 15.6699C13.6316 15.5073 13.6603 15.2707 13.8706 15.1393C14.0833 15.003 14.4036 15.0269 14.5804 15.1847L16.7459 17.1159L16.7483 13.839C16.7483 13.6335 16.9753 13.4638 17.2502 13.4638C17.525 13.4638 17.7521 13.6335 17.7521 13.839L17.7497 17.233L20.0442 15.1894C20.2258 15.0269 20.5389 15.0078 20.7541 15.144C20.9644 15.2755 20.9955 15.5097 20.8138 15.6699L17.8692 18.2894L17.7497 18.3946V18.5021V21.6164L20.9046 18.8057C21.0839 18.6479 21.3994 18.6288 21.6097 18.7602C21.8272 18.8917 21.8511 19.1307 21.6766 19.2885L17.8668 22.6776L17.7449 22.7828V22.8951V25.431V25.627C17.7473 25.6341 17.7473 25.6437 17.7473 25.6533V25.9544V26.3297C17.7449 26.3297 17.7449 26.332 17.7449 26.332" fill="#008080"/>
<path d="M16.746 22.6487V22.6705L16.7485 22.6777C16.746 22.6705 16.746 22.6584 16.746 22.6487Z" fill="#008080"/>
<path d="M16.746 18.2703V18.2876L16.7485 18.29C16.746 18.2826 16.746 18.2777 16.746 18.2703Z" fill="#008080"/>
</svg>
