<svg width="111" height="32" viewBox="0 0 111 32" fill="none" xmlns="http://www.w3.org/2000/svg">
<path d="M45.9926 16.2518C45.9926 16.6496 45.9661 17.0076 45.9131 17.3259H37.8577C37.924 18.1215 38.2024 18.7447 38.6931 19.1955C39.1837 19.6464 39.787 19.8718 40.503 19.8718C41.5373 19.8718 42.2732 19.4276 42.7108 18.5392H45.7142C45.3959 19.6 44.786 20.4751 43.8843 21.1646C42.9826 21.8409 41.8754 22.179 40.5627 22.179C39.5019 22.179 38.5472 21.947 37.6986 21.4829C36.8632 21.0055 36.2068 20.3359 35.7295 19.474C35.2654 18.6121 35.0333 17.6176 35.0333 16.4905C35.0333 15.3502 35.2654 14.349 35.7295 13.4871C36.1936 12.6252 36.8433 11.9623 37.6787 11.4982C38.514 11.0341 39.4754 10.802 40.5627 10.802C41.6102 10.802 42.5451 11.0274 43.3672 11.4783C44.2025 11.9291 44.8456 12.5722 45.2965 13.4076C45.7606 14.2297 45.9926 15.1778 45.9926 16.2518ZM43.1086 15.4562C43.0953 14.7402 42.8368 14.17 42.3329 13.7457C41.829 13.3081 41.2124 13.0893 40.4831 13.0893C39.7936 13.0893 39.2102 13.3015 38.7328 13.7258C38.2687 14.1369 37.9836 14.7137 37.8776 15.4562H43.1086ZM47.3091 16.4905C47.3091 15.3502 47.5411 14.3557 48.0052 13.507C48.4693 12.6451 49.1124 11.9821 49.9346 11.518C50.7567 11.0407 51.6981 10.802 52.7589 10.802C54.1247 10.802 55.2518 11.1468 56.1402 11.8363C57.0419 12.5125 57.6452 13.4673 57.9502 14.7004H54.9468C54.7877 14.2231 54.5158 13.8518 54.1313 13.5866C53.76 13.3081 53.2959 13.1689 52.739 13.1689C51.9434 13.1689 51.3136 13.4606 50.8495 14.0441C50.3854 14.6142 50.1533 15.4297 50.1533 16.4905C50.1533 17.538 50.3854 18.3535 50.8495 18.937C51.3136 19.5071 51.9434 19.7922 52.739 19.7922C53.8661 19.7922 54.602 19.2883 54.9468 18.2806H57.9502C57.6452 19.474 57.0419 20.4221 56.1402 21.1248C55.2385 21.8276 54.1114 22.179 52.7589 22.179C51.6981 22.179 50.7567 21.947 49.9346 21.4829C49.1124 21.0055 48.4693 20.3425 48.0052 19.4939C47.5411 18.632 47.3091 17.6309 47.3091 16.4905ZM64.883 22.179C63.8222 22.179 62.8675 21.947 62.0189 21.4829C61.1702 21.0055 60.5006 20.3359 60.01 19.474C59.5326 18.6121 59.294 17.6176 59.294 16.4905C59.294 15.3634 59.5393 14.3689 60.0299 13.507C60.5338 12.6451 61.2167 11.9821 62.0786 11.518C62.9404 11.0407 63.9018 10.802 64.9626 10.802C66.0234 10.802 66.9847 11.0407 67.8466 11.518C68.7085 11.9821 69.3848 12.6451 69.8754 13.507C70.3793 14.3689 70.6312 15.3634 70.6312 16.4905C70.6312 17.6176 70.3726 18.6121 69.8555 19.474C69.3516 20.3359 68.6621 21.0055 67.7869 21.4829C66.925 21.947 65.9571 22.179 64.883 22.179ZM64.883 19.7524C65.3869 19.7524 65.8576 19.6331 66.2952 19.3944C66.746 19.1425 67.1041 18.7712 67.3693 18.2806C67.6345 17.79 67.767 17.1933 67.767 16.4905C67.767 15.443 67.4886 14.6408 66.9317 14.0838C66.388 13.5137 65.7184 13.2286 64.9228 13.2286C64.1272 13.2286 63.4576 13.5137 62.9139 14.0838C62.3835 14.6408 62.1183 15.443 62.1183 16.4905C62.1183 17.538 62.3769 18.3469 62.894 18.9171C63.4244 19.474 64.0874 19.7524 64.883 19.7524ZM75.4584 12.5722C75.8164 12.0683 76.307 11.6506 76.9302 11.3191C77.5667 10.9744 78.2894 10.802 79.0982 10.802C80.0397 10.802 80.8883 11.0341 81.6441 11.4982C82.4132 11.9623 83.0165 12.6252 83.4541 13.4871C83.9049 14.3358 84.1303 15.3236 84.1303 16.4507C84.1303 17.5778 83.9049 18.5789 83.4541 19.4541C83.0165 20.316 82.4132 20.9856 81.6441 21.463C80.8883 21.9403 80.0397 22.179 79.0982 22.179C78.2894 22.179 77.5733 22.0133 76.9501 21.6818C76.3401 21.3503 75.8429 20.9326 75.4584 20.4287V27.2509H72.6738V10.981H75.4584V12.5722ZM81.2861 16.4507C81.2861 15.7877 81.1469 15.2176 80.8684 14.7402C80.6032 14.2496 80.2452 13.8783 79.7944 13.6264C79.3568 13.3744 78.8794 13.2485 78.3623 13.2485C77.8584 13.2485 77.3811 13.3811 76.9302 13.6463C76.4926 13.8982 76.1346 14.2695 75.8562 14.7601C75.591 15.2507 75.4584 15.8275 75.4584 16.4905C75.4584 17.1535 75.591 17.7303 75.8562 18.2209C76.1346 18.7115 76.4926 19.0895 76.9302 19.3546C77.3811 19.6066 77.8584 19.7326 78.3623 19.7326C78.8794 19.7326 79.3568 19.6 79.7944 19.3348C80.2452 19.0696 80.6032 18.6917 80.8684 18.201C81.1469 17.7104 81.2861 17.127 81.2861 16.4507ZM85.4378 16.4507C85.4378 15.3369 85.6566 14.349 86.0942 13.4871C86.545 12.6252 87.1483 11.9623 87.9041 11.4982C88.6732 11.0341 89.5285 10.802 90.4699 10.802C91.292 10.802 92.0081 10.9678 92.618 11.2993C93.2412 11.6308 93.7385 12.0484 94.1098 12.5523V10.981H96.9142V22H94.1098V20.3889C93.7518 20.9061 93.2545 21.337 92.618 21.6818C91.9948 22.0133 91.2721 22.179 90.45 22.179C89.5218 22.179 88.6732 21.9403 87.9041 21.463C87.1483 20.9856 86.545 20.316 86.0942 19.4541C85.6566 18.5789 85.4378 17.5778 85.4378 16.4507ZM94.1098 16.4905C94.1098 15.8143 93.9772 15.2374 93.712 14.7601C93.4468 14.2695 93.0888 13.8982 92.6379 13.6463C92.1871 13.3811 91.7031 13.2485 91.186 13.2485C90.6688 13.2485 90.1915 13.3744 89.7539 13.6264C89.3163 13.8783 88.9583 14.2496 88.6798 14.7402C88.4146 15.2176 88.282 15.7877 88.282 16.4507C88.282 17.1137 88.4146 17.6972 88.6798 18.201C88.9583 18.6917 89.3163 19.0696 89.7539 19.3348C90.2047 19.6 90.6821 19.7326 91.186 19.7326C91.7031 19.7326 92.1871 19.6066 92.6379 19.3546C93.0888 19.0895 93.4468 18.7182 93.712 18.2408C93.9772 17.7502 94.1098 17.1668 94.1098 16.4905ZM110.175 10.981L103.353 27.2111H100.39L102.776 21.7215L98.3609 10.981H101.484L104.328 18.6784L107.212 10.981H110.175Z" fill="white"/>
<path d="M6.97246 8.0112L2.62156 12.9837L2 20.4424L5.10779 26.6579L10.7018 30.3873H18.1605L24.3761 26.0364L26.8623 19.8208L25.6192 12.3621L20.6467 7.38964L13.8096 5.52496L6.97246 8.0112Z" fill="white"/>
<path d="M6.97246 8.0112L2.62156 12.9837L2 20.4424L5.10779 26.6579L10.7018 30.3873H18.1605L24.3761 26.0364L26.8623 19.8208L25.6192 12.3621L20.6467 7.38964L13.8096 5.52496L6.97246 8.0112Z" fill="white" stroke="#FE9C8F" stroke-width="2.01586"/>
<path d="M8.31303 18.8946C8.93388 19.0496 9.72609 19.2347 10.4856 19.6515C11.1951 20.0416 11.7092 20.603 12.2172 21.173C12.5324 21.527 12.721 22.0092 12.9053 22.4587C13.1007 22.9366 13.2437 23.4395 13.3711 23.9406C13.4555 24.2704 13.5097 24.6338 13.1343 24.8499C13.0249 24.9128 12.8725 24.9455 12.7494 24.9274C12.4919 24.8913 12.2336 24.8318 11.9873 24.7466C11.3544 24.5262 10.7077 24.3281 10.1032 24.0439C9.11729 23.5807 8.4775 22.7282 8.00562 21.7973C7.68012 21.1541 7.49929 20.4161 7.36927 19.6997C7.23838 18.9712 7.38563 18.8688 8.31303 18.8946Z" fill="#008080"/>
<path d="M21.344 19.6575C21.1597 20.1741 20.9918 20.696 20.7869 21.204C20.6215 21.6156 20.4485 22.0324 20.216 22.4087C19.7071 23.2319 18.9665 23.7942 18.0916 24.2006C17.4889 24.4805 16.9025 24.7801 16.2101 24.775C15.9768 24.7733 15.6978 24.9463 15.5178 24.8654C15.1424 24.6966 15.1751 24.3152 15.2672 23.9664C15.4205 23.3843 15.5161 22.7764 15.7572 22.2322C15.9759 21.7379 16.3212 21.2867 16.6734 20.869C17.0988 20.3636 17.5655 19.8857 18.1975 19.6205C18.5265 19.4827 18.8416 19.3036 19.1809 19.2002C19.6123 19.0685 20.0575 18.9454 20.5036 18.9066C21.2277 18.8437 21.2639 18.9057 21.344 19.6575Z" fill="#008080"/>
<path d="M14.3069 10.8526C14.9045 10.8922 15.4944 10.8552 16.0437 10.9861C16.6999 11.1428 17.3207 11.4468 17.9597 11.6801C18.8035 11.9884 19.4769 12.561 20.1115 13.1569C20.5378 13.5573 20.8883 14.0619 21.1819 14.5717C21.479 15.0875 21.4282 15.0909 20.7987 15.1288C20.3759 15.1547 19.9591 15.2967 19.5372 15.3122C19.3529 15.3191 19.1333 15.1702 18.9783 15.0367C18.5822 14.694 18.2464 14.2729 17.8236 13.9715C17.381 13.6555 16.8661 13.4411 16.3821 13.1828C16.3572 13.1698 16.3296 13.1578 16.3021 13.1526C15.3669 12.9959 14.4257 12.6971 13.4828 12.9132C12.6786 13.0975 11.8519 13.3076 11.1837 13.8527C10.6817 14.2626 10.1581 14.6561 9.71467 15.1237C9.34699 15.512 8.96552 15.2468 8.59783 15.2623C8.28009 15.2761 7.95804 15.159 7.63513 15.1125C7.35958 15.0729 7.27433 14.9936 7.47668 14.7353C7.83404 14.2798 8.10959 13.7459 8.52033 13.3498C9.03871 12.8495 9.62082 12.3923 10.2425 12.0306C10.9383 11.6259 11.6857 11.272 12.4547 11.0395C13.0437 10.8621 13.7015 10.906 14.3069 10.8526Z" fill="#008080"/>
</svg>
