<svg width="1590" height="462" viewBox="0 0 1590 462" fill="none" xmlns="http://www.w3.org/2000/svg">
<g clip-path="url(#clip0_95_1464)">
<path d="M978.956 137.94C974.5 149.394 993.483 157.93 993.519 168.493C993.641 179.422 972.125 197.361 975.328 206.922C978.932 216.63 1006.94 213.48 1014.71 221.368C1022.66 229.245 1013.99 251.799 1025.68 257.417C1037.55 262.961 1063.05 249.015 1076.73 251.934C1090.04 254.754 1100.63 275.88 1116.51 275.88C1132.39 275.88 1142.98 254.754 1156.29 251.934C1169.98 249.015 1195.47 262.948 1207.35 257.417C1219.04 251.799 1210.37 229.245 1218.32 221.368C1226.09 213.492 1254.09 216.643 1257.69 206.922C1260.9 197.349 1239.37 179.422 1239.5 168.493C1239.54 157.93 1258.52 149.394 1254.07 137.94C1249.61 126.486 1226.46 117.95 1220.87 107.387C1215.18 96.4579 1221.46 78.5316 1213.6 68.9578C1206.01 59.2498 1189.03 62.4003 1181.09 54.5117C1173.33 46.6354 1170.94 24.0809 1163.27 18.4637C1156.05 12.9197 1145.78 26.8651 1137.67 23.9466C1129.89 21.1257 1123.46 0 1116.5 0C1109.53 0 1103.11 21.1257 1095.35 23.9466C1087.24 26.8651 1076.97 12.9197 1069.75 18.4637C1062.07 24.0809 1059.7 46.6354 1051.93 54.5117C1043.98 62.3881 1027.02 59.2376 1019.42 68.9578C1011.58 78.5316 1017.86 96.4579 1012.16 107.387C1006.56 117.95 983.413 126.486 978.956 137.94Z" fill="#46B076"/>
<path d="M1101.92 198.973C1102.83 198.24 1104.6 202.355 1117.58 216.936C1118.93 190.559 1120.57 184.344 1122.39 184.344C1125.02 184.344 1127.58 199.925 1129.52 245.791C1140.68 219.83 1151.26 196.628 1152.69 197.19C1154.4 197.886 1142.22 233.336 1130.31 265.671C1131.93 309.828 1131.78 284.453 1132.95 316.056C1133 317.326 1132.24 319.915 1129.24 319.841C1126.22 319.756 1120.53 320.257 1117.18 319.841C1113.83 319.426 1113.36 317.326 1113.36 316.056C1113.36 271.167 1114.76 278.347 1117.12 226.51C1103.3 208.217 1100.91 199.803 1101.92 198.973Z" fill="#46B076"/>
</g>
<g clip-path="url(#clip1_95_1464)">
<path d="M753.735 97.1021C753.121 105.003 750.955 114.924 745.029 123.601C742.805 126.864 742.981 128.342 747.107 128.693C751.76 129.088 756.238 130.2 760.495 132.102C770.153 136.433 774.016 144.422 771.645 154.694C771.133 156.889 768.894 159.42 771.572 161.381C774.133 163.268 776.035 160.444 778.142 159.566C785.59 156.479 792.847 152.953 801.26 156.391C808.898 159.508 813.508 164.878 815.044 172.969C818.541 191.377 806.616 215.724 789.745 224.255C787.843 225.221 785.56 226.216 783.541 226.055C776.123 225.484 773.723 228.44 774.235 235.887C776.722 272.848 733.675 296.537 703.094 279.008C691.578 272.409 680.648 265.298 671.884 255.29C668.094 250.958 665.358 250.607 660.5 254.251C641.683 268.385 620.13 275.526 596.719 277.004C581.135 277.984 565.538 278.364 550.057 275.701C541.804 274.282 534.035 271.414 527.538 265.883C521.817 261.011 520.69 255.524 524.48 248.983C528.957 241.243 535.103 235.141 543.911 232.303C545.696 231.732 548.447 231.63 548.023 229.171C547.54 226.362 544.95 227.928 543.165 227.942C527.187 228.059 511.501 226.786 497.542 217.846C490.446 213.296 486.041 207.062 487.592 198.283C489.056 190.001 493.036 183.227 501.683 180.476C503.161 180.008 504.61 179.686 504.917 178.047C505.385 175.574 503.278 174.842 501.727 173.73C492.948 167.439 485.134 160.152 479.559 150.773C475.17 143.383 473.443 135.409 475.404 126.893C478.33 114.178 489.041 108.779 501.156 113.695C508.004 116.475 512.701 121.655 516.988 127.347C518.247 129.015 519.008 131.605 521.846 130.99C524.07 130.507 524.524 128.327 525.226 126.542C529.865 114.602 535.937 111.851 548.447 116.109C550.525 116.812 552.764 117.997 554.52 115.934C555.983 114.207 554.841 112.232 554.095 110.447C550.028 100.804 545.565 91.2932 544.628 80.641C543.663 69.5499 545.55 59.3221 555.749 53.1327C566.65 46.519 577.624 47.7481 587.91 55.2105C592.066 58.2247 596.089 61.3706 599.001 65.687C600.069 67.2673 600.669 69.506 603.259 68.7012C605.366 68.0428 605.995 66.0967 606.507 64.1799C607.868 59.0441 608.512 53.7619 611.833 49.182C623.188 33.5989 646.658 25.9463 668.533 30.9944C688.462 35.5888 697.46 46.4605 697.87 66.9308C697.987 72.4471 699.26 74.0566 704.747 71.3497C713.248 67.1502 722.584 66.4625 731.904 67.0625C745.907 67.9404 753.809 78.1536 753.735 97.1021Z" fill="#57BC86"/>
</g>
<path d="M620.754 248.501C621.971 247.513 624.366 253.063 641.891 272.679C643.716 237.172 645.883 228.809 648.392 228.809C651.927 228.809 655.387 249.793 658.01 311.493C673.064 276.557 687.358 245.346 689.259 246.106C691.578 247.056 675.117 294.766 659.036 338.256C661.203 397.675 661.013 363.537 662.61 406.077C662.686 407.787 661.66 411.285 657.592 411.171C653.524 411.057 645.845 411.741 641.321 411.171C636.797 410.6 636.151 407.787 636.151 406.077C636.151 345.669 638.052 355.325 641.245 285.566C622.579 260.932 619.386 249.603 620.754 248.501Z" fill="#57BC86"/>
<path d="M796.545 260.185C795.511 294.744 767.858 324.591 732.923 324.591C697.987 324.591 668.992 293.346 670.027 260.185C671.061 227.025 713.672 164.534 732.923 164.003C752.173 163.486 797.58 225.627 796.545 260.185Z" fill="#FE9C8F"/>
<path d="M744.974 283.07C744.457 282.651 743.436 285 735.999 293.332C735.23 278.261 734.293 274.71 733.245 274.71C731.735 274.71 730.267 283.616 729.163 309.828C722.76 294.981 716.707 281.728 715.882 282.05C714.889 282.441 721.879 302.698 728.715 321.18C727.793 346.413 727.877 331.916 727.205 349.964C727.178 350.691 727.611 352.173 729.33 352.131C731.064 352.089 734.321 352.369 736.237 352.131C738.152 351.894 738.417 350.691 738.417 349.964C738.417 324.311 737.607 328.407 736.264 298.798C744.191 288.341 745.547 283.532 744.974 283.07Z" fill="#FE9C8F"/>
<path d="M1589.67 250.332C1587.79 313.327 1537.38 367.734 1473.7 367.734C1410.02 367.734 1357.16 310.779 1359.05 250.332C1360.93 189.885 1438.61 75.9742 1473.7 75.0058C1508.79 74.063 1591.56 187.337 1589.67 250.332Z" fill="#57BC86"/>
<path d="M1495.67 292.048C1494.72 291.284 1492.86 295.565 1479.31 310.753C1477.9 283.282 1476.2 276.809 1474.29 276.809C1471.53 276.809 1468.86 293.042 1466.84 340.824C1455.17 313.76 1444.14 289.602 1442.64 290.188C1440.83 290.902 1453.57 327.827 1466.03 361.516C1464.35 407.514 1464.5 381.088 1463.28 413.987C1463.23 415.312 1464.02 418.013 1467.15 417.937C1470.31 417.86 1476.25 418.37 1479.74 417.937C1483.23 417.503 1483.71 415.312 1483.71 413.987C1483.71 367.225 1482.24 374.691 1479.79 320.717C1494.24 301.656 1496.71 292.889 1495.67 292.048Z" fill="#57BC86"/>
<g clip-path="url(#clip2_95_1464)">
<path d="M875.101 114.869C874.068 116.378 873.017 117.888 871.948 119.434C842.626 161.396 814.138 168.562 824.359 172.473C833.819 176.093 842.481 177.275 867.49 163.888C866.439 165.434 865.351 166.998 864.246 168.562C827.675 220.928 792.12 229.859 804.878 234.752C815.896 238.972 826.026 240.536 852.684 227.149C810.151 285.335 770.301 295.612 785.179 301.323C800.51 307.198 893.459 282.261 902.411 264.982C911.363 282.261 1006.5 307.198 1021.84 301.323C1036.71 295.63 996.936 285.354 954.422 227.276C980.898 240.536 991.01 238.972 1001.99 234.752C1014.75 229.859 979.195 220.928 942.624 168.562C941.555 167.034 940.522 165.525 939.489 164.033C964.28 177.275 972.906 176.093 982.348 172.473C992.587 168.544 964.081 161.396 934.759 119.434C933.98 118.306 933.201 117.197 932.458 116.105C932.44 116.105 902.067 60.6655 875.101 114.869Z" fill="#FDCE10"/>
<path d="M919.972 222.656C919.21 222.038 917.743 225.457 906.996 237.553C905.873 215.672 904.532 210.506 903.009 210.506C900.835 210.506 898.714 223.438 897.101 261.508C887.841 239.972 879.07 220.71 877.892 221.183C876.46 221.765 886.572 251.176 896.449 278.005C895.108 314.638 895.235 293.593 894.256 319.822C894.22 320.876 894.836 323.023 897.337 322.968C899.838 322.895 904.568 323.314 907.34 322.968C910.113 322.623 910.512 320.876 910.512 319.822C910.512 282.571 909.352 288.518 907.395 245.52C918.83 230.332 920.805 223.347 919.972 222.656Z" fill="#00B8A2"/>
</g>
<g clip-path="url(#clip3_95_1464)">
<path d="M421 155.203C421 142.102 415.247 130.512 406.464 123.508C411.483 116.78 414.513 108.063 414.513 98.539C414.513 77.1733 399.267 59.8641 380.447 59.8641C378.789 59.8641 377.156 60.0153 375.57 60.2673C375.57 60.0405 375.593 59.7885 375.593 59.5618C375.593 38.1961 360.347 20.8869 341.527 20.8869C334.164 20.8869 327.37 23.5325 321.806 28.0424C316.977 11.741 303.435 0 287.456 0C271.712 0 258.313 11.4135 253.318 27.337C247.92 23.2553 241.433 20.8617 234.473 20.8617C215.653 20.8617 200.407 38.1709 200.407 59.5366C200.407 59.7634 200.407 60.0153 200.407 60.2421C198.82 59.9901 197.187 59.8389 195.53 59.8389C176.709 59.8389 161.463 77.1481 161.463 98.5138C161.463 108.038 164.493 116.73 169.512 123.482C160.753 130.512 155 142.077 155 155.203C155 170.673 163.002 184.027 174.555 190.2C172.424 195.264 171.217 200.933 171.217 206.929C171.217 228.295 186.463 245.604 205.283 245.604C213.119 245.604 220.364 242.581 226.116 237.517C231.443 250.971 243.351 260.344 257.177 260.344C270.789 260.344 282.531 251.273 288 238.146C293.445 251.273 305.187 260.344 318.823 260.344C332.649 260.344 344.557 250.971 349.884 237.517C355.636 242.581 362.881 245.604 370.717 245.604C389.537 245.604 404.783 228.295 404.783 206.929C404.783 200.933 403.576 195.264 401.445 190.2C412.998 184.002 421 170.673 421 155.203Z" fill="#FECEC7"/>
<path d="M305.235 199.396C304.406 198.69 302.797 202.646 291.031 216.705C289.8 191.308 288.332 185.312 286.651 185.312C284.26 185.312 281.94 200.328 280.188 244.521C270.056 219.502 260.444 197.154 259.166 197.708C257.603 198.363 268.683 232.528 279.478 263.669C278.01 306.199 278.152 281.76 277.087 312.196C277.039 313.405 277.726 315.899 280.448 315.849C283.195 315.773 288.356 316.252 291.386 315.849C294.416 315.446 294.842 313.43 294.842 312.196C294.842 268.96 293.564 275.864 291.433 225.927C303.98 208.315 306.135 200.202 305.235 199.396Z" fill="#FECEC7"/>
</g>
<g clip-path="url(#clip4_95_1464)">
<path d="M1415 280.858C1415 270.825 1410.63 261.949 1403.96 256.585C1407.77 251.433 1410.07 244.757 1410.07 237.463C1410.07 221.101 1398.5 207.845 1384.2 207.845C1382.95 207.845 1381.7 207.961 1380.5 208.154C1380.5 207.98 1380.52 207.787 1380.52 207.614C1380.52 191.251 1368.94 177.996 1354.65 177.996C1349.06 177.996 1343.9 180.022 1339.67 183.476C1336 170.992 1325.72 162 1313.59 162C1301.63 162 1291.46 170.741 1287.66 182.935C1283.56 179.809 1278.64 177.976 1273.35 177.976C1259.06 177.976 1247.48 191.232 1247.48 207.594C1247.48 207.768 1247.48 207.961 1247.48 208.135C1246.28 207.942 1245.04 207.826 1243.78 207.826C1229.49 207.826 1217.91 221.082 1217.91 237.444C1217.91 244.738 1220.21 251.395 1224.02 256.566C1217.37 261.949 1213 270.805 1213 280.858C1213 292.705 1219.08 302.932 1227.85 307.659C1226.23 311.538 1225.31 315.879 1225.31 320.471C1225.31 336.833 1236.89 350.089 1251.19 350.089C1257.14 350.089 1262.64 347.774 1267.01 343.896C1271.05 354.199 1280.09 361.377 1290.59 361.377C1300.93 361.377 1309.85 354.431 1314 344.378C1318.13 354.431 1327.05 361.377 1337.41 361.377C1347.91 361.377 1356.95 354.199 1360.99 343.896C1365.36 347.774 1370.86 350.089 1376.81 350.089C1391.11 350.089 1402.69 336.833 1402.69 320.471C1402.69 315.879 1401.77 311.538 1400.15 307.659C1408.92 302.913 1415 292.705 1415 280.858Z" fill="#FDCE10"/>
<path d="M1327.09 314.702C1326.46 314.162 1325.24 317.191 1316.3 327.958C1315.37 308.508 1314.25 303.916 1312.98 303.916C1311.16 303.916 1309.4 315.416 1308.07 349.26C1300.37 330.1 1293.07 312.985 1292.1 313.409C1290.92 313.911 1299.33 340.075 1307.53 363.924C1306.41 396.494 1306.52 377.778 1305.71 401.086C1305.68 402.013 1306.2 403.923 1308.26 403.884C1310.35 403.826 1314.27 404.193 1316.57 403.884C1318.87 403.576 1319.2 402.032 1319.2 401.086C1319.2 367.976 1318.22 373.263 1316.61 335.02C1326.13 321.532 1327.77 315.319 1327.09 314.702Z" fill="#FDCE10"/>
</g>
<g clip-path="url(#clip5_95_1464)">
<path d="M205.236 230.76C204.784 236.57 203.192 243.864 198.834 250.244C197.199 252.643 197.328 253.73 200.362 253.988C203.783 254.279 207.076 255.096 210.206 256.495C217.307 259.68 220.148 265.554 218.405 273.107C218.028 274.721 216.382 276.582 218.351 278.024C220.234 279.411 221.632 277.335 223.182 276.689C228.658 274.419 233.994 271.826 240.181 274.355C245.797 276.646 249.186 280.595 250.315 286.545C252.887 300.079 244.118 317.982 231.713 324.254C230.315 324.965 228.636 325.696 227.152 325.578C221.697 325.158 219.932 327.331 220.309 332.808C222.138 359.985 190.485 377.403 167.999 364.514C159.532 359.662 151.495 354.433 145.051 347.074C142.264 343.889 140.252 343.631 136.68 346.31C122.844 356.703 106.996 361.954 89.7821 363.04C78.3239 363.761 66.8549 364.041 55.472 362.083C49.404 361.039 43.6911 358.93 38.9141 354.863C34.7074 351.281 33.879 347.246 36.6655 342.437C39.9577 336.746 44.4765 332.259 50.9533 330.172C52.2659 329.752 54.2886 329.677 53.9765 327.869C53.6215 325.804 51.7172 326.955 50.4046 326.966C38.6559 327.052 27.1224 326.116 16.8584 319.542C11.6403 316.196 8.40191 311.613 9.54235 305.157C10.6182 299.068 13.5447 294.087 19.9032 292.064C20.9898 291.72 22.0549 291.483 22.2809 290.278C22.6252 288.46 21.0759 287.922 19.9354 287.104C13.4801 282.478 7.73486 277.12 3.63572 270.223C0.408054 264.79 -0.861495 258.926 0.580196 252.665C2.73197 243.315 10.6075 239.345 19.5158 242.96C24.551 245.004 28.0046 248.813 31.1569 252.998C32.0822 254.225 32.6417 256.129 34.7289 255.677C36.3643 255.322 36.6978 253.719 37.2142 252.407C40.6248 243.627 45.0897 241.605 54.2886 244.736C55.8163 245.252 57.4624 246.123 58.7535 244.606C59.8294 243.337 58.9902 241.884 58.4415 240.572C55.4505 233.482 52.1691 226.488 51.4805 218.656C50.7704 210.501 52.1583 202.98 59.6572 198.429C67.6726 193.566 75.7418 194.47 83.3053 199.957C86.3608 202.173 89.3195 204.487 91.4605 207.66C92.2459 208.822 92.687 210.468 94.5913 209.877C96.1406 209.393 96.6033 207.962 96.9798 206.552C97.9804 202.776 98.4538 198.892 100.896 195.524C109.245 184.066 126.502 178.439 142.587 182.151C157.24 185.529 163.857 193.523 164.158 208.575C164.244 212.631 165.18 213.814 169.215 211.824C175.466 208.736 182.33 208.231 189.183 208.672C199.48 209.317 205.29 216.827 205.236 230.76Z" fill="#57BC86"/>
</g>
<path d="M107.456 342.082C108.35 341.356 110.111 345.437 122.998 359.86C124.339 333.753 125.933 327.603 127.778 327.603C130.377 327.603 132.921 343.033 134.85 388.4C145.919 362.712 156.429 339.762 157.827 340.321C159.532 341.02 147.428 376.101 135.604 408.079C137.198 451.769 137.058 426.668 138.232 457.947C138.288 459.205 137.533 461.776 134.542 461.693C131.551 461.609 125.905 462.112 122.578 461.693C119.252 461.273 118.777 459.205 118.777 457.947C118.777 413.53 120.174 420.63 122.522 369.336C108.798 351.223 106.45 342.893 107.456 342.082Z" fill="#57BC86"/>
<g clip-path="url(#clip6_95_1464)">
<path d="M517.536 148.95C520.298 156.507 508.504 162.127 508.474 169.096C508.399 176.304 521.776 188.131 519.79 194.433C517.551 200.831 500.128 198.751 495.306 203.958C490.365 209.15 495.754 224.025 488.484 227.724C481.109 231.375 465.254 222.183 456.729 224.104C448.444 225.962 441.86 239.9 431.992 239.9C422.124 239.9 415.525 225.978 407.254 224.104C398.744 222.183 382.89 231.375 375.5 227.724C368.229 224.025 373.619 209.15 368.677 203.958C363.84 198.767 346.433 200.847 344.193 194.433C342.208 188.115 355.584 176.304 355.51 169.096C355.495 162.143 343.686 156.507 346.462 148.95C349.224 141.394 363.631 135.774 367.11 128.804C370.663 121.597 366.751 109.77 371.633 103.467C376.366 97.0694 386.906 99.1491 391.847 93.9419C396.684 88.7507 398.162 73.8754 402.94 70.1764C407.433 66.5251 413.808 75.717 418.854 73.796C423.676 71.9227 427.662 58 431.992 58C436.321 58 440.322 71.9227 445.144 73.796C450.19 75.717 456.565 66.5251 461.059 70.1764C465.836 73.8754 467.314 88.7507 472.151 93.9419C477.093 99.1332 487.648 97.0535 492.365 103.467C497.247 109.786 493.336 121.597 496.889 128.804C500.367 135.774 514.759 141.409 517.536 148.95Z" fill="#008080"/>
<path d="M441.055 189.194C440.488 188.718 439.383 191.433 431.321 201.037C430.485 183.638 429.47 179.542 428.335 179.542C426.708 179.542 425.111 189.814 423.902 220.056C416.959 202.942 410.376 187.639 409.495 188.02C408.42 188.48 416.004 211.849 423.409 233.169C422.409 262.285 422.498 245.552 421.767 266.396C421.737 267.222 422.2 268.937 424.081 268.889C425.962 268.841 429.5 269.159 431.575 268.889C433.65 268.619 433.949 267.238 433.949 266.396C433.949 236.789 433.083 241.52 431.605 207.356C440.204 195.291 441.682 189.75 441.055 189.194Z" fill="#FDCE10"/>
</g>
<defs>
<clipPath id="clip0_95_1464">
<rect width="283" height="320" fill="white" transform="matrix(-1 0 0 1 1258 0)"/>
</clipPath>
<clipPath id="clip1_95_1464">
<rect width="341.045" height="255.476" fill="white" transform="translate(474.613 29.4287)"/>
</clipPath>
<clipPath id="clip2_95_1464">
<rect width="243" height="232" fill="white" transform="translate(782 84)"/>
</clipPath>
<clipPath id="clip3_95_1464">
<rect width="266" height="316" fill="white" transform="translate(155)"/>
</clipPath>
<clipPath id="clip4_95_1464">
<rect width="202" height="242" fill="white" transform="translate(1213 162)"/>
</clipPath>
<clipPath id="clip5_95_1464">
<rect width="250.768" height="187.85" fill="white" transform="translate(0 181)"/>
</clipPath>
<clipPath id="clip6_95_1464">
<rect width="176" height="211" fill="white" transform="translate(344 58)"/>
</clipPath>
</defs>
</svg>
