<svg width="129" height="88" viewBox="0 0 129 88" fill="none" xmlns="http://www.w3.org/2000/svg">
<g clip-path="url(#clip0_79_2140)">
<path d="M52 53.907C52 51.1292 50.8754 48.6718 49.1584 47.1867C50.1396 45.7604 50.7319 43.9121 50.7319 41.8928C50.7319 37.3627 47.7515 33.6927 44.0723 33.6927C43.7483 33.6927 43.429 33.7248 43.1189 33.7782C43.1189 33.7301 43.1235 33.6767 43.1235 33.6286C43.1235 29.0985 40.1431 25.4286 36.4639 25.4286C35.0246 25.4286 33.6963 25.9895 32.6088 26.9457C31.6646 23.4894 29.0174 21 25.8936 21C22.8159 21 20.1965 23.4199 19.22 26.7961C18.1648 25.9307 16.8968 25.4232 15.5361 25.4232C11.8569 25.4232 8.87647 29.0932 8.87647 33.6233C8.87647 33.6713 8.87647 33.7248 8.87647 33.7728C8.56639 33.7194 8.24706 33.6874 7.9231 33.6874C4.24386 33.6874 1.26344 37.3574 1.26344 41.8874C1.26344 43.9067 1.85582 45.7497 2.83695 47.1814C1.1246 48.6718 0 51.1238 0 53.907C0 57.187 1.56426 60.0183 3.82271 61.3271C3.40619 62.4009 3.17017 63.6029 3.17017 64.8743C3.17017 69.4043 6.15059 73.0743 9.82983 73.0743C11.3617 73.0743 12.7779 72.4333 13.9025 71.3595C14.9438 74.2122 17.2716 76.1994 19.9744 76.1994C22.6355 76.1994 24.9309 74.2763 26 71.4931C27.0644 74.2763 29.3599 76.1994 32.0256 76.1994C34.7284 76.1994 37.0562 74.2122 38.0975 71.3595C39.2221 72.4333 40.6383 73.0743 42.1702 73.0743C45.8494 73.0743 48.8298 69.4043 48.8298 64.8743C48.8298 63.6029 48.5938 62.4009 48.1773 61.3271C50.4357 60.013 52 57.187 52 53.907Z" fill="#FE9C8F"/>
<path d="M29.369 63.277C29.207 63.1274 28.8923 63.9661 26.5922 66.947C26.3515 61.5622 26.0646 60.2908 25.736 60.2908C25.2686 60.2908 24.815 63.4747 24.4726 72.8446C22.4918 67.54 20.6128 62.8016 20.3629 62.9191C20.0575 63.058 22.2234 70.3018 24.3337 76.9046C24.0468 85.922 24.0746 80.7402 23.8663 87.1934C23.8571 87.4498 23.9913 87.9786 24.5235 87.968C25.0603 87.9519 26.0692 88.0534 26.6616 87.968C27.254 87.8825 27.3373 87.4551 27.3373 87.1934C27.3373 78.0264 27.0874 79.4901 26.6709 68.9022C29.1237 65.1681 29.5448 63.448 29.369 63.277Z" fill="#FE9C8F"/>
</g>
<g clip-path="url(#clip1_79_2140)">
<path d="M128.048 37.9318C129.115 41.0834 124.558 43.4273 124.547 46.3339C124.518 49.3399 129.686 54.2725 128.919 56.9011C128.054 59.5693 121.322 58.702 119.459 60.8737C117.55 63.0387 119.632 69.2426 116.823 70.7853C113.974 72.3082 107.848 68.4746 104.555 69.2757C101.353 70.0504 98.8096 75.8637 94.9969 75.8637C91.1842 75.8637 88.6347 70.057 85.4392 69.2757C82.1514 68.4746 76.0256 72.3082 73.1704 70.7853C70.3614 69.2426 72.4437 63.0387 70.5344 60.8737C68.6656 58.7086 61.94 59.576 61.0748 56.9011C60.3076 54.2659 65.4758 49.3399 65.447 46.3339C65.4412 43.4339 60.8786 41.0834 61.9515 37.9318C63.0186 34.7802 68.5848 32.4364 69.9288 29.5298C71.3016 26.5238 69.7903 21.5912 71.6765 18.9626C73.505 16.2943 77.5773 17.1617 79.4865 14.99C81.3554 12.8249 81.9264 6.62102 83.7722 5.07832C85.5084 3.55549 87.9714 7.38906 89.921 6.58792C91.7841 5.80664 93.3241 0 94.9969 0C96.6696 0 98.2155 5.80664 100.079 6.58792C102.028 7.38906 104.491 3.55549 106.227 5.07832C108.073 6.62102 108.644 12.8249 110.513 14.99C112.422 17.1551 116.5 16.2877 118.323 18.9626C120.209 21.5978 118.698 26.5238 120.071 29.5298C121.415 32.4364 126.975 34.7868 128.048 37.9318Z" fill="#FDCE10"/>
<path d="M98.4979 54.7161C98.2787 54.5175 97.8519 55.6497 94.7371 59.6554C94.4141 52.3988 94.0219 50.6906 93.5835 50.6906C92.9548 50.6906 92.3376 54.9744 91.8704 67.5874C89.1882 60.4499 86.6445 54.0673 86.3042 54.2262C85.8889 54.4182 88.8191 64.1643 91.68 73.0564C91.2936 85.1993 91.3282 78.2208 91.0455 86.9142C91.034 87.2585 91.2128 87.9735 91.9396 87.9537C92.6664 87.9338 94.0334 88.0662 94.8352 87.9537C95.6369 87.8411 95.7523 87.2651 95.7523 86.9142C95.7523 74.566 95.4178 76.539 94.8467 62.2906C98.1691 57.2586 98.7402 54.9479 98.4979 54.7161Z" fill="#882B1B"/>
</g>
<defs>
<clipPath id="clip0_79_2140">
<rect width="52" height="67" fill="white" transform="translate(0 21)"/>
</clipPath>
<clipPath id="clip1_79_2140">
<rect width="68" height="88" fill="white" transform="translate(61)"/>
</clipPath>
</defs>
</svg>
