<svg width="1920" height="234" viewBox="0 0 1920 234" fill="none" xmlns="http://www.w3.org/2000/svg">
<path fill-rule="evenodd" clip-rule="evenodd" d="M706.711 47.2058C750.449 70.8111 794.189 94.4173 881.671 94.4173C969.139 94.4173 1012.91 70.76 1056.69 47.1035C1097.22 25.1952 1137.76 3.28755 1213 0.171639C1288.24 3.28755 1328.78 25.1952 1369.31 47.1035C1413.09 70.76 1456.86 94.4173 1544.33 94.4173C1631.81 94.4173 1675.55 70.8111 1719.29 47.2058C1763.02 23.6024 1806.76 0 1894.22 0C1981.69 0 2025.42 23.6062 2069.15 47.2115C2112.88 70.8149 2156.6 94.4173 2244.05 94.4173C2331.35 94.4173 2375.08 70.7784 2418.79 47.1511C2421.19 45.8528 2423.59 44.5546 2426 43.2603V234H1213H0V43.2603C2.40875 44.5546 4.81034 45.8528 7.212 47.1511C50.9197 70.7784 94.6489 94.4173 181.95 94.4173C269.398 94.4173 313.123 70.8149 356.85 47.2115C400.581 23.6062 444.314 0 531.783 0C619.244 0 662.977 23.6024 706.711 47.2058Z" fill="#008080"/>
</svg>
